<?xml version="1.0" encoding="iso-8859-1"?>
<!-- Generator: Adobe Illustrator 19.0.0, SVG Export Plug-In . SVG Version: 6.00 Build 0)  -->
<svg version="1.1" id="Layer_1" xmlns="http://www.w3.org/2000/svg" xmlns:xlink="http://www.w3.org/1999/xlink" x="0px" y="0px"
	 viewBox="0 0 512 512" style="enable-background:new 0 0 512 512;" xml:space="preserve">
<path d="M469.32,396.792V102.4c0-7.04-5.76-12.8-12.8-12.8H55.536c-7.04,0-12.8,5.76-12.8,12.8v294.392
	C42.736,396.792,470.384,396.792,469.32,396.792z"/>
<rect y="396.8" style="fill:#D8D8D8;" width="512" height="8.536"/>
<polygon style="fill:#BCBCBC;" points="486.4,422.4 25.6,422.4 0,405.328 512,405.328 "/>
<g style="opacity:0.7;">
	<path style="fill:#FFFFFF;" d="M299.04,396.8h-86.08c0.816,4.792,4.824,8.536,9.832,8.536H289.2
		C294.216,405.328,298.224,401.592,299.04,396.8z"/>
</g>
<g>
	<path style="fill:#E21B1B;" d="M196.832,255.344H165.2l2.744-13.16l43.472-50.816h13.592l-10.576,50.592h9.76l-2.8,13.376h-9.76
		l-3.456,16.392h-14.808L196.832,255.344z M199.624,241.968l5.208-25.056l-21.208,25.056H199.624z"/>
	<path style="fill:#E21B1B;" d="M231.8,245.584c0-8.08,1.376-16.256,4.112-24.552c3.368-10.128,7.68-17.656,12.936-22.584
		c5.264-4.936,11.112-7.408,17.544-7.408c6.496,0,11.84,2.36,16.032,7.08c4.184,4.712,6.272,11.56,6.272,20.552
		c0,8.216-1.52,16.912-4.568,26.064c-3.056,9.16-7.168,16.168-12.368,21.056c-5.184,4.872-11.032,7.312-17.536,7.312
		s-11.864-2.352-16.088-7.072C233.912,261.32,231.8,254.504,231.8,245.584z M247.264,248.768c0,4.312,0.696,7.344,2.088,9.104
		c1.384,1.752,3.168,2.632,5.368,2.632c2.92,0,5.512-1.352,7.792-4.064c3.032-3.616,5.72-10.744,8.056-21.376
		c1.864-8.448,2.8-15.136,2.8-20.064c0-4.024-0.704-6.912-2.112-8.688s-3.208-2.664-5.4-2.664c-2.784,0-5.248,1.336-7.408,4.008
		c-3.176,3.864-5.92,10.688-8.216,20.448C248.248,236.544,247.264,243.432,247.264,248.768z"/>
	<path style="fill:#E21B1B;" d="M321.712,255.344H290.08l2.744-13.16l43.472-50.816h13.592l-10.576,50.592h9.76l-2.8,13.376h-9.76
		l-3.456,16.392h-14.808L321.712,255.344z M324.496,241.968l5.208-25.056l-21.208,25.056H324.496z"/>
</g>
<g>
	<path style="fill:#999999;" d="M427.48,155.112H84.512v-30.656H427.48L427.48,155.112L427.48,155.112z M86.512,153.112H425.48
		v-26.656H86.512V153.112z"/>
	<path style="fill:#999999;" d="M427.48,361.872H84.512v-208.76H427.48L427.48,361.872L427.48,361.872z M86.512,359.872H425.48
		v-204.76H86.512V359.872z"/>
	<rect x="208.8" y="302.76" style="fill:#999999;" width="94.456" height="4"/>
	<rect x="167.8" y="323.44" style="fill:#999999;" width="176.4" height="4"/>
</g>
<g>
</g>
<g>
</g>
<g>
</g>
<g>
</g>
<g>
</g>
<g>
</g>
<g>
</g>
<g>
</g>
<g>
</g>
<g>
</g>
<g>
</g>
<g>
</g>
<g>
</g>
<g>
</g>
<g>
</g>
</svg>
